<svg id="Camada_1" data-name="Camada 1" xmlns="http://www.w3.org/2000/svg" viewBox="0 0 566 42"><defs><style>.cls-1{fill:#00000000;}.cls-2{fill:#fff;}.cls-3{fill:#fff;}</style></defs><title>hyperspace-logo</title><path class="cls-1" d="M565.91,9.11V17c-14.66,0-29.31.1-44-.07-3.22,0-4.16.76-4.16,4s.94,4,4.16,4c14.65-.17,29.3-.07,44-.07v6.89c-14.66,0-29.31.1-44-.07-3.22,0-4.16.76-4.16,4s.94,4,4.16,4c14.65-.17,29.3-.07,44-.07-.42.62,1,2.09-1,2-1.17-.06-2.34,0-3.5,0H289c.62-2.24-1.54-2.82-2.59-3.93-3.54-3.74-7.29-7.29-11.25-11.19,9.07-2.84,11.31-6.25,10.79-15.3-.31-5.25-2.68-7.52-10.39-8.95-12-2.23-24.19-.43-36.28-1C236.93,1.1,237,2.45,237,4c0,11.13,0,22.27,0,33.41,0,1.21-.35,2.5,1.62,3,5.15,1.28,7.24-.18,7.25-5.38a47.27,47.27,0,0,0,0-4.91c-.25-2.45.55-3.1,3.2-3.43,9.93-1.25,18.21.92,24.31,9.28,1.52,2.1,3.7,3.74,5.59,5.59q-137.49,0-275-.1c-1.26,0-4.3,2-4-1.87l1,0c8,1.11,8,1.11,8-6.45,0-2,.14-3.94,0-5.88-.21-2.4.73-3.13,3.11-3.07,5.15.15,10.31-.06,15.46.08,4.12.12,9.36-1.75,12.05.8,2.49,2.35.87,7.49.67,11.36S42.42,40,45,40.12s4.19-.1,4.1-3.54c-.26-10.3-.19-20.62,0-30.92,0-3.07-.2-4.58-4.09-4.59s-4.21,1.69-4,4.65c.19,2.77-.12,5.57.08,8.34.18,2.44-.78,3-3.11,3C31.3,16.89,24.65,17,18,17c-9,0-9,0-9-8.87C9,1,9,1,1.51,1.36A2.77,2.77,0,0,0,1,1.47L0,1.24c.9-2,2.7-.93,4-.93q49-.12,98-.06C97.52,6.37,91.28,10.82,86.14,16.32c-1.52,1.62-2.33-.09-3.17-.89C79.75,12.35,76.2,9.51,73.53,6,69.4.6,64.16.71,58,1.62c4.56,4.49,8.43,9.05,13.05,12.7C78.49,20.21,83.1,27,81,36.82c-.78,3.67,1.87,3.33,4.24,3.31s5.12.37,4.37-3.3c-2.1-10.3,2.75-17.28,10.67-23.2,3.8-2.85,7-6.5,10.44-9.82,1-1,2.45-1.79,2.26-3.56q224.21,0,448.41.06c1.46,0,3.39-1.13,4.5.93-14.66,0-29.31.09-44-.08-3.22,0-4.16.77-4.16,4s.94,4.05,4.16,4C536.6,9,551.25,9.11,565.91,9.11ZM313.27,32.72h0c-5,0-10,.12-15,0-2.76-.1-2.49,1.63-2.28,3.2s-1.34,4.37,2.2,4.32c11.14-.17,22.34.79,33.41-.83,3.25-.47,7.07-1.41,8.22-5.35,2.87-9.85-2.4-16.76-13-17-4.83-.12-9.66,0-14.49,0a13,13,0,0,1-5.26-.82c-2.2-.94-2.48-2.4-2.35-4.3s1.46-2.74,3.36-2.85c2.49-.13,5-.49,7.46-.51,7-.08,14-.11,21,0,2.33,0,3-1,2.63-2.95-.31-1.49,1.38-4.28-1.65-4.22-11.46.2-23-1.33-34.36,1.13A8.83,8.83,0,0,0,296,10.78c-.47,4.93.46,9.06,5.69,11.32a19.75,19.75,0,0,0,8.17,1.79c5.66-.05,11.33-.2,17,.07,2.54.12,5.28.74,5.17,4.44-.1,3.52-2.13,4.38-5.22,4.33C322.27,32.66,317.77,32.72,313.27,32.72Zm36.67-12.45c0,5.57,0,11.14,0,16.7,0,1.16-.6,2.55,1.4,3.14,4.84,1.43,7.42-.29,7.43-5.21a25.62,25.62,0,0,0,0-3.92c-.54-3.44.79-4.36,4.3-4.34,8.6.05,17.23.74,25.8-.79,6.19-1.11,9.75-4.87,9.94-10.88.3-9.26-3.49-13.42-13.26-13.67-10.81-.27-21.63,0-32.44-.14-2.79,0-3.29,1-3.22,3.39C350.06,9.78,349.94,15,349.94,20.27ZM120,20.66c0,5.4.13,10.8-.06,16.19-.08,2.59.78,3.19,3.36,3.37,4.13.29,5.81-1,5.17-5.14-.2-1.27.16-2.64-.07-3.91-.67-3.82,1-4.53,4.65-4.53,8.42,0,16.89.87,25.27-.79,4.84-1,8.73-2.94,9.89-8.14,2.17-9.78-2.4-16-12.57-16.38-10.95-.36-21.93,0-32.9-.15-2.22,0-2.83.68-2.78,2.8C120.08,9.53,120,15.1,120,20.66Zm337.9,19.15c-8.43-12.13-16.64-24.23-25.18-36.1C429.85-.27,425.42.48,422.2,5c-6.74,9.41-13.53,18.8-20.14,28.3-1.49,2.14-3.72,4-3.94,7,4.71,0,9.59,1.3,12-4.36,2.28-5.27,6.55-6.51,12.1-6a99.73,99.73,0,0,0,15,0c3.27-.17,5.42.95,6.8,3.74C446.75,39.27,450.9,41.92,457.89,39.81Zm31.78-.19c4.83,0,9.66-.16,14.47.06,2.91.14,3.58-.88,3.63-3.61.06-3-1.21-3.44-3.83-3.4-8.65.13-17.3,0-25.95,0-4.05,0-6.55-1.36-6.23-6a95.32,95.32,0,0,0,0-12.76c-.31-4.65,1.87-6,6.21-5.86,8.14.19,16.3.12,24.45,0,2.26,0,5.34,1.45,5.4-3.28.06-4.51-2.65-3.57-5.15-3.57-8.15,0-16.3,0-24.45,0a24.3,24.3,0,0,0-6.9.83c-6.05,1.75-8.35,4.73-8.38,11,0,4.43.31,8.87-.07,13.26-.88,10.14,6.23,13,13.33,13.29C480.68,39.77,485.18,39.62,489.67,39.62ZM203,1.24c-7,0-14,.21-21-.09-3.68-.16-3,2-3,4s-.59,4.07,3,4q21-.33,41.92,0c3.67.06,3-2,3-4s.6-4.16-3-4C217,1.45,210,1.24,203,1.24ZM203.49,17c-7.16,0-14.32.21-21.46-.08-3.64-.15-3.06,1.93-3,4s-.64,4.09,3,4q21-.33,41.93,0c3.62,0,3.05-1.94,3-4s.66-4.19-3-4C217.14,17.2,210.31,17,203.49,17ZM203,31.74c-7,0-14,.22-21-.08-3.67-.16-3,2-3,4s-.59,4.07,3,4q21-.33,41.92,0c3.67.06,3-2,3-4s.6-4.17-3-4C217,32,210,31.74,203,31.74Z" transform="translate(0)"/><path class="cls-2" d="M279,41.58c-1.89-1.85-4.07-3.49-5.59-5.59-6.1-8.36-14.38-10.53-24.31-9.28-2.65.33-3.45,1-3.2,3.43a47.27,47.27,0,0,1,0,4.91c0,5.2-2.1,6.66-7.25,5.38-2-.49-1.62-1.78-1.62-3,0-11.14,0-22.28,0-33.41,0-1.58-.07-2.93,2.24-2.82,12.09.57,24.26-1.23,36.28,1,7.71,1.43,10.08,3.7,10.39,9,.52,9.05-1.72,12.46-10.79,15.3,4,3.9,7.71,7.45,11.25,11.19,1.05,1.11,3.21,1.69,2.59,3.93Zm-19.25-22v-.22c4,0,8,.05,11.94,0,3.23-.07,5.59-.64,5.57-5S275,8.88,271.49,8.76c-6.64-.22-13.29,0-19.91-.39-4.36-.27-5.88.78-5.89,5.47s1.27,6.43,6.06,5.77A58.82,58.82,0,0,1,259.72,19.54Z" transform="translate(0)"/><path class="cls-2" d="M113,.25c.19,1.77-1.23,2.56-2.26,3.56-3.44,3.32-6.64,7-10.44,9.82-7.92,5.92-12.77,12.9-10.67,23.2.75,3.67-2,3.29-4.37,3.3s-5,.36-4.24-3.31C83.1,27,78.49,20.21,71,14.32,66.39,10.67,62.52,6.11,58,1.62,64.16.71,69.4.6,73.53,6c2.67,3.5,6.22,6.34,9.44,9.42.84.8,1.65,2.51,3.17.89C91.28,10.82,97.52,6.37,102,.25Z" transform="translate(0)"/><path class="cls-3" d="M565.91,9.11c-14.66,0-29.31-.1-44,.07-3.22,0-4.16-.77-4.16-4s.94-4,4.16-4c14.65.17,29.3.08,44,.08Z" transform="translate(0)"/><path class="cls-3" d="M565.91,24.85c-14.66,0-29.31-.1-44,.07-3.22,0-4.16-.76-4.16-4s.94-4.05,4.16-4c14.65.17,29.3.07,44,.07Z" transform="translate(0)"/><path class="cls-3" d="M565.91,39.61c-14.66,0-29.31-.1-44,.07-3.22,0-4.16-.76-4.16-4s.94-4.05,4.16-4c14.65.17,29.3.07,44,.07Z" transform="translate(0)"/><path class="cls-2" d="M1,39.63l-1,0V1.24l1,.23Z" transform="translate(0)"/><path class="cls-2" d="M313.27,32.72c4.5,0,9-.06,13.49,0,3.09.05,5.12-.81,5.22-4.33.11-3.7-2.63-4.32-5.17-4.44-5.66-.27-11.33-.12-17-.07a19.75,19.75,0,0,1-8.17-1.79c-5.23-2.26-6.16-6.39-5.69-11.32a8.83,8.83,0,0,1,7.24-8.32c11.34-2.46,22.9-.93,34.36-1.13,3-.06,1.34,2.73,1.65,4.22.4,1.92-.3,3-2.63,3-7-.12-14-.09-21,0-2.49,0-5,.38-7.46.51-1.9.11-3.22.8-3.36,2.85s.15,3.36,2.35,4.3a13,13,0,0,0,5.26.82c4.83,0,9.66-.1,14.49,0,10.56.28,15.83,7.19,13,17-1.15,3.94-5,4.88-8.22,5.35-11.07,1.62-22.27.66-33.41.83-3.54,0-2-2.69-2.2-4.32s-.48-3.3,2.28-3.2c5,.16,10,0,15,0Z" transform="translate(0)"/><path class="cls-2" d="M349.94,20.27c0-5.24.12-10.49-.05-15.72-.07-2.44.43-3.43,3.22-3.39,10.81.17,21.63-.13,32.44.14,9.77.25,13.56,4.41,13.26,13.67-.19,6-3.75,9.77-9.94,10.88-8.57,1.53-17.2.84-25.8.79-3.51,0-4.84.9-4.3,4.34a25.62,25.62,0,0,1,0,3.92c0,4.92-2.59,6.64-7.43,5.21-2-.59-1.38-2-1.4-3.14C349.91,31.41,349.94,25.84,349.94,20.27Zm23-1.07V19c4.3,0,8.61.06,12.91,0,2.76-.05,4.06-1.51,4.2-4.3.24-4.84-1.07-6.36-6.68-6.48C376.56,8,369.73,8.54,363,8c-5.16-.42-4.23,2.6-4.16,5.4s-1.35,6.53,4.16,5.87C366.24,18.88,369.59,19.2,372.91,19.2Z" transform="translate(0)"/><path class="cls-2" d="M120,20.66c0-5.56.09-11.13,0-16.68,0-2.12.56-2.82,2.78-2.8,11,.11,22-.21,32.9.15,10.17.33,14.74,6.6,12.57,16.38-1.16,5.2-5,7.18-9.89,8.14-8.38,1.66-16.85.78-25.27.79-3.61,0-5.32.71-4.65,4.53.23,1.27-.13,2.64.07,3.91.64,4.1-1,5.43-5.17,5.14-2.58-.18-3.44-.78-3.36-3.37C120.12,31.46,120,26.06,120,20.66Zm23-1.46v-.05c3.48,0,7,.05,10.45,0s6.63-.22,6.67-5.06-3.17-5.74-6.7-5.86c-7.29-.26-14.59-.09-21.89-.07-1.27,0-2.51-.28-3,1.6-1.87,6.56.21,9.46,7,9.46Z" transform="translate(0)"/><path class="cls-2" d="M457.89,39.81c-7,2.11-11.14-.54-13.86-6.05-1.38-2.79-3.53-3.91-6.8-3.74a99.73,99.73,0,0,1-15,0c-5.55-.55-9.82.69-12.1,6-2.45,5.66-7.33,4.36-12,4.36.22-3,2.45-4.89,3.94-7,6.61-9.5,13.4-18.89,20.14-28.3,3.22-4.5,7.65-5.25,10.51-1.27C441.25,15.58,449.46,27.68,457.89,39.81ZM427.62,11l-8.05,11.57H436Z" transform="translate(0)"/><path class="cls-3" d="M1,39.63V1.47a2.77,2.77,0,0,1,.48-.11C9,1,9,1,9,8.11,9,17,9,17,18,17c6.65,0,13.3-.09,20,.05,2.33,0,3.29-.53,3.11-3-.2-2.77.11-5.57-.08-8.34-.21-3,0-4.67,4-4.65s4.14,1.52,4.09,4.59c-.16,10.3-.23,20.62,0,30.92.09,3.44-1.42,3.66-4.1,3.54s-4.92.3-4.73-3.65,1.82-9-.67-11.36c-2.69-2.55-7.93-.68-12-.8-5.15-.14-10.31.07-15.46-.08C9.71,24.17,8.77,24.9,9,27.3c.18,1.94,0,3.92,0,5.88C9,40.74,9,40.74,1,39.63Z" transform="translate(0)"/><path class="cls-2" d="M489.67,39.62c-4.49,0-9,.15-13.47,0-7.1-.28-14.21-3.15-13.33-13.29.38-4.39.05-8.83.07-13.26,0-6.26,2.33-9.24,8.38-11a24.3,24.3,0,0,1,6.9-.83c8.15,0,16.3,0,24.45,0,2.5,0,5.21-.94,5.15,3.57-.06,4.73-3.14,3.24-5.4,3.28-8.15.11-16.31.18-24.45,0-4.34-.11-6.52,1.21-6.21,5.86a95.32,95.32,0,0,1,0,12.76c-.32,4.65,2.18,6,6.23,6,8.65,0,17.3.09,25.95,0,2.62,0,3.89.38,3.83,3.4,0,2.73-.72,3.75-3.63,3.61C499.33,39.46,494.5,39.62,489.67,39.62Z" transform="translate(0)"/><path class="cls-3" d="M203,1.24c7,0,14,.21,21-.09,3.64-.15,3.06,1.94,3,4s.65,4.09-3,4q-21-.33-41.92,0c-3.63.06-3.06-1.94-3-4s-.66-4.19,3-4C189,1.45,196,1.24,203,1.24Z" transform="translate(0)"/><path class="cls-3" d="M203.49,17c6.82,0,13.65.22,20.46-.08,3.68-.17,3,2,3,4s.59,4.07-3,4q-21-.33-41.93,0c-3.66.06-3-2-3-4s-.6-4.16,3-4C189.17,17.19,196.33,17,203.49,17Z" transform="translate(0)"/><path class="cls-3" d="M203,31.74c7,0,14,.21,21-.08,3.64-.16,3.06,1.93,3,4s.65,4.09-3,4q-21-.33-41.92,0c-3.63,0-3.06-1.94-3-4s-.65-4.18,3-4C189,32,196,31.74,203,31.74Z" transform="translate(0)"/><path class="cls-1" d="M259.72,19.54a58.82,58.82,0,0,0-8,.07c-4.79.66-6.06-1-6.06-5.77s1.53-5.74,5.89-5.47c6.62.41,13.27.17,19.91.39,3.48.12,5.72,1.27,5.74,5.58s-2.34,4.89-5.57,5c-4,.07-8,0-11.94,0Z" transform="translate(0)"/><path class="cls-1" d="M372.91,19.2c-3.32,0-6.67-.32-9.93.07-5.51.66-4.09-3.07-4.16-5.87s-1-5.82,4.16-5.4c6.75.54,13.58,0,20.36.17,5.61.12,6.92,1.64,6.68,6.48-.14,2.79-1.44,4.25-4.2,4.3-4.3.08-8.61,0-12.91,0Z" transform="translate(0)"/><path class="cls-1" d="M142.94,19.2h-7.46c-6.84,0-8.92-2.9-7-9.46.53-1.88,1.77-1.6,3-1.6,7.3,0,14.6-.19,21.89.07,3.53.12,6.73,1.09,6.7,5.86s-3.24,5-6.67,5.06-7,0-10.45,0Z" transform="translate(0)"/><path class="cls-1" d="M427.62,11,436,22.55H419.57Z" transform="translate(0)"/></svg>